<?xml version="1.0" standalone="no"?><!DOCTYPE svg PUBLIC "-//W3C//DTD SVG 1.1//EN" "http://www.w3.org/Graphics/SVG/1.1/DTD/svg11.dtd"><svg width="100%" height="100%" viewBox="0 0 450 450" version="1.1" xmlns="http://www.w3.org/2000/svg" xmlns:xlink="http://www.w3.org/1999/xlink" xml:space="preserve" style="fill-rule:evenodd;clip-rule:evenodd;stroke-linejoin:round;stroke-miterlimit:1.41421;"><g id="Layer1"><path d="M405.919,-83.441l-489.374,489.374l63.609,63.609l489.374,-489.374l-63.609,-63.609Z" style="fill:#8babb9;fill-opacity:0.564706;"/><path d="M54.857,365.259c4.886,-4.886 6.675,-9.555 7.024,-14.703c0.088,-1.134 -0.218,-2.487 -1.265,-3.534c-1.701,-1.701 -4.537,-1.658 -6.239,0.044c-0.785,0.785 -1.178,1.789 -1.265,2.749c-0.393,3.446 -1.396,6.195 -4.232,9.031c-5.235,5.235 -13.219,4.493 -18.455,-0.742l-0.087,-0.087c-5.236,-5.236 -5.803,-13.22 -0.655,-18.368c2.4,-2.399 5.149,-3.577 8.421,-4.057c0.785,-0.175 1.745,-0.437 2.661,-1.353c1.832,-1.832 1.876,-4.755 0.044,-6.588c-1.178,-1.178 -2.749,-1.527 -3.97,-1.352c-4.407,0.654 -8.726,2.53 -13.307,7.111c-9.38,9.38 -8.813,23.036 -0.131,31.718l0.087,0.087c8.77,8.77 22.382,9.032 31.369,0.044Z" style="fill:#fff;fill-rule:nonzero;"/><path d="M86.706,333.41c9.424,-9.423 9.162,-23.385 0.48,-32.067l-0.087,-0.087c-8.683,-8.682 -22.469,-8.944 -31.893,0.48c-9.424,9.424 -9.162,23.385 -0.48,32.067l0.087,0.087c8.683,8.682 22.469,8.944 31.893,-0.48ZM80.598,327.128c-5.41,5.41 -13.612,4.886 -18.848,-0.349l-0.087,-0.088c-5.235,-5.235 -5.759,-13.263 -0.349,-18.672c5.41,-5.41 13.612,-4.887 18.848,0.349l0.087,0.087c5.235,5.235 5.759,13.263 0.349,18.673Z" style="fill:#fff;fill-rule:nonzero;"/><path d="M105.423,307.626c1.832,1.832 4.711,1.832 6.544,0c1.832,-1.833 1.876,-4.756 0.043,-6.588l-15.182,-15.183l14.746,3.141c1.745,0.35 3.272,0.131 4.494,-1.09c1.221,-1.222 1.44,-2.749 1.091,-4.494l-3.185,-14.965l15.226,15.227c1.832,1.832 4.843,1.876 6.675,0.043c1.876,-1.876 1.876,-4.842 0,-6.718l-24.257,-24.258c-1.876,-1.876 -4.843,-1.876 -6.719,0l-0.742,0.742c-1.352,1.352 -1.745,2.879 -1.309,4.712l5.105,21.421l-21.334,-5.104c-1.615,-0.393 -3.36,-0.131 -4.799,1.309l-0.742,0.741c-1.876,1.876 -1.876,4.843 0,6.719l24.345,24.345Z" style="fill:#fff;fill-rule:nonzero;"/><path d="M143.51,269.364c1.876,1.876 4.843,1.876 6.719,0c1.876,-1.876 1.876,-4.843 0,-6.719l-24.345,-24.345c-1.876,-1.876 -4.842,-1.876 -6.719,0c-1.876,1.876 -1.876,4.843 0,6.719l24.345,24.345Z" style="fill:#fff;fill-rule:nonzero;"/><path d="M157.908,255.054c1.832,1.832 4.799,1.832 6.631,0c1.833,-1.833 1.833,-4.8 0,-6.632l-16.361,-16.361l31.064,4.189c2.094,0.261 3.839,0.087 5.453,-1.527l0.219,-0.219c1.876,-1.876 1.876,-4.842 0,-6.718l-24.301,-24.301c-1.833,-1.833 -4.8,-1.833 -6.632,0c-1.832,1.832 -1.832,4.799 0,6.631l15.75,15.75l-29.973,-4.057c-2.094,-0.262 -3.839,-0.088 -5.453,1.527l-0.698,0.698c-1.876,1.876 -1.876,4.842 0,6.718l24.301,24.302Z" style="fill:#fff;fill-rule:nonzero;"/><path d="M210.654,209.462c4.581,-4.581 6.676,-9.729 7.635,-13.743c0.655,-2.574 0.044,-4.668 -1.919,-6.632l-7.417,-7.417c-1.876,-1.876 -4.843,-1.876 -6.719,0l-7.678,7.679c-1.615,1.614 -1.615,4.232 0,5.846c1.614,1.614 4.188,1.571 5.802,-0.043l4.537,-4.538l4.363,4.363c-0.48,2.923 -2.05,5.715 -4.493,8.159c-5.41,5.41 -13.351,5.148 -18.935,-0.437l-0.087,-0.087c-5.192,-5.192 -5.629,-13.394 -0.742,-18.28c2.879,-2.88 5.628,-4.058 8.769,-4.581c0.829,-0.131 1.789,-0.393 2.749,-1.353c1.832,-1.832 1.832,-4.799 0,-6.631c-1.309,-1.309 -2.967,-1.484 -4.101,-1.309c-4.669,0.829 -8.77,2.836 -13.394,7.46c-9.249,9.25 -8.9,23.123 -0.218,31.806l0.087,0.087c9.031,9.031 22.25,9.162 31.761,-0.349Z" style="fill:#fff;fill-rule:nonzero;"/><path d="M254.021,165.921c6.588,-6.588 7.81,-14.616 1.745,-20.68l-0.087,-0.088c-5.323,-5.322 -11.038,-4.057 -18.847,0.524c-6.632,3.926 -8.595,4.581 -10.602,2.574l-0.087,-0.087c-1.484,-1.484 -1.309,-4.014 1.265,-6.588c2.094,-2.094 4.93,-3.447 8.464,-4.363c0.829,-0.218 1.527,-0.567 2.181,-1.222c1.745,-1.745 1.789,-4.493 0.044,-6.239c-1.309,-1.308 -2.967,-1.483 -4.145,-1.177c-4.494,1.003 -8.682,3.272 -12.39,6.98c-6.239,6.239 -7.025,14.354 -1.484,19.895l0.087,0.087c6.065,6.064 11.737,3.796 19.459,-0.785c6.413,-3.796 8.333,-3.971 10.034,-2.269l0.088,0.087c1.788,1.789 1.221,4.538 -1.527,7.286c-2.967,2.967 -6.545,4.45 -10.559,5.061c-0.741,0.131 -1.657,0.436 -2.53,1.309c-1.745,1.745 -1.789,4.494 -0.044,6.239c1.047,1.047 2.531,1.483 3.796,1.265c5.846,-0.96 11.125,-3.796 15.139,-7.809Z" style="fill:#fff;fill-rule:nonzero;"/><path d="M286.001,134.115c9.424,-9.423 9.162,-23.385 0.48,-32.067l-0.088,-0.087c-8.682,-8.682 -22.468,-8.944 -31.892,0.48c-9.424,9.424 -9.162,23.385 -0.48,32.067l0.087,0.087c8.682,8.682 22.469,8.944 31.893,-0.48ZM279.893,127.833c-5.41,5.41 -13.612,4.886 -18.848,-0.349l-0.087,-0.087c-5.235,-5.236 -5.759,-13.264 -0.349,-18.673c5.41,-5.41 13.612,-4.887 18.848,0.349l0.087,0.087c5.235,5.235 5.759,13.263 0.349,18.673Z" style="fill:#fff;fill-rule:nonzero;"/><path d="M323.085,97.031c9.424,-9.424 9.162,-23.385 0.48,-32.067l-0.087,-0.087c-8.682,-8.682 -22.469,-8.944 -31.893,0.48c-9.423,9.424 -9.162,23.385 -0.48,32.067l0.088,0.087c8.682,8.682 22.468,8.944 31.892,-0.48ZM316.977,90.749c-5.41,5.41 -13.612,4.886 -18.847,-0.349l-0.088,-0.088c-5.235,-5.235 -5.759,-13.263 -0.349,-18.673c5.41,-5.41 13.612,-4.886 18.848,0.349l0.087,0.088c5.235,5.235 5.759,13.263 0.349,18.673Z" style="fill:#fff;fill-rule:nonzero;"/><path d="M341.758,71.203c1.832,1.832 4.799,1.832 6.632,0c1.832,-1.832 1.832,-4.799 0,-6.631l-16.361,-16.361l31.063,4.188c2.095,0.262 3.84,0.087 5.454,-1.527l0.218,-0.218c1.876,-1.876 1.876,-4.843 0,-6.719l-24.301,-24.301c-1.832,-1.832 -4.799,-1.832 -6.632,0c-1.832,1.833 -1.832,4.799 0,6.632l15.75,15.75l-29.972,-4.058c-2.095,-0.262 -3.84,-0.087 -5.454,1.527l-0.698,0.698c-1.876,1.876 -1.876,4.843 0,6.719l24.301,24.301Z" style="fill:#fff;fill-rule:nonzero;"/></g></svg>