<?xml version="1.0" standalone="no"?><!DOCTYPE svg PUBLIC "-//W3C//DTD SVG 1.1//EN" "http://www.w3.org/Graphics/SVG/1.1/DTD/svg11.dtd"><svg width="100%" height="100%" viewBox="0 0 450 450" version="1.1" xmlns="http://www.w3.org/2000/svg" xmlns:xlink="http://www.w3.org/1999/xlink" xml:space="preserve" style="fill-rule:evenodd;clip-rule:evenodd;stroke-linejoin:round;stroke-miterlimit:1.41421;"><g id="Layer1"><path d="M405.919,-83.441l-489.374,489.374l63.609,63.609l489.374,-489.374l-63.609,-63.609Z" style="fill:#8babb9;fill-opacity:0.564706;"/><path d="M89.157,323.442c1.876,1.876 4.843,1.876 6.719,0l8.551,-8.551c9.598,-9.599 9.555,-22.905 0.96,-31.5l-0.088,-0.088c-8.594,-8.594 -21.814,-8.551 -31.412,1.048l-8.551,8.551c-1.876,1.876 -1.876,4.843 0,6.719l23.821,23.821ZM93.171,314.018l-18.411,-18.411l5.191,-5.192c5.498,-5.497 13.002,-5.41 18.412,0l0.087,0.087c5.41,5.41 5.41,12.827 -0.087,18.324l-5.192,5.192Z" style="fill:#fff;fill-rule:nonzero;"/><path d="M123.842,289.281c1.876,1.876 4.842,1.876 6.718,0c1.876,-1.876 1.876,-4.843 0,-6.719l-24.344,-24.345c-1.876,-1.876 -4.843,-1.876 -6.719,0c-1.876,1.876 -1.876,4.843 0,6.719l24.345,24.345Z" style="fill:#fff;fill-rule:nonzero;"/><path d="M152.593,267.597c6.588,-6.588 7.809,-14.615 1.745,-20.68l-0.087,-0.087c-5.323,-5.323 -11.038,-4.057 -18.848,0.524c-6.631,3.926 -8.595,4.581 -10.602,2.574l-0.087,-0.088c-1.483,-1.483 -1.309,-4.013 1.265,-6.587c2.095,-2.095 4.93,-3.447 8.464,-4.363c0.829,-0.218 1.527,-0.567 2.182,-1.222c1.745,-1.745 1.788,-4.494 0.043,-6.239c-1.309,-1.309 -2.966,-1.483 -4.144,-1.178c-4.494,1.004 -8.682,3.272 -12.391,6.981c-6.239,6.239 -7.024,14.354 -1.483,19.894l0.087,0.088c6.064,6.064 11.736,3.795 19.458,-0.786c6.414,-3.795 8.333,-3.97 10.035,-2.268l0.087,0.087c1.789,1.789 1.222,4.537 -1.527,7.286c-2.967,2.967 -6.544,4.45 -10.558,5.061c-0.742,0.131 -1.658,0.436 -2.53,1.309c-1.746,1.745 -1.789,4.493 -0.044,6.239c1.047,1.047 2.53,1.483 3.796,1.265c5.846,-0.96 11.125,-3.796 15.139,-7.81Z" style="fill:#fff;fill-rule:nonzero;"/><path d="M164.023,249.535c1.746,1.745 4.494,1.789 6.239,0.044c1.396,-1.396 1.745,-3.316 1.004,-5.192l-2.88,-7.155l13.438,-13.438l6.85,2.749c2.006,0.785 3.97,0.654 5.54,-0.916c1.789,-1.789 1.745,-4.625 -0.043,-6.414c-0.437,-0.436 -1.004,-0.741 -1.702,-1.003l-34.684,-13.394c-2.4,-0.916 -4.712,-0.611 -6.545,1.221l-0.392,0.393c-1.833,1.832 -2.182,4.188 -1.266,6.588l13.394,34.685c0.262,0.698 0.568,1.352 1.047,1.832ZM164.94,228.812l-5.847,-14.311l14.311,5.847l-8.464,8.464Z" style="fill:#fff;fill-rule:nonzero;"/><path d="M199.057,213.542c1.876,1.876 4.843,1.876 6.719,0l11.169,-11.169c6.893,-6.894 8.638,-14.223 3.054,-19.808l-0.087,-0.087c-4.102,-4.101 -8.334,-3.97 -13.22,-1.789c0.96,-3.403 0.873,-7.155 -2.574,-10.601l-0.087,-0.088c-2.094,-2.094 -4.494,-3.097 -7.286,-3.097c-3.49,0 -7.199,1.788 -10.689,5.279l-10.82,10.82c-1.876,1.876 -1.876,4.842 0,6.718l23.821,23.822ZM190.768,192.164l-6.457,-6.457l6.631,-6.632c2.836,-2.836 5.541,-3.272 7.548,-1.265l0.087,0.087c2.269,2.269 1.353,5.105 -1.614,8.071l-6.195,6.196ZM203.071,204.467l-6.719,-6.719l7.766,-7.766c3.447,-3.446 6.239,-3.708 8.289,-1.658l0.088,0.088c2.268,2.268 1.527,5.104 -1.44,8.071l-7.984,7.984Z" style="fill:#fff;fill-rule:nonzero;"/><path d="M230.557,182.042c1.876,1.876 4.843,1.876 6.719,0l15.793,-15.794c1.702,-1.701 1.702,-4.406 0,-6.108c-1.701,-1.701 -4.406,-1.701 -6.108,0l-12.434,12.434l-21.334,-21.334c-1.876,-1.876 -4.843,-1.876 -6.719,0c-1.876,1.876 -1.876,4.843 0,6.719l24.083,24.083Z" style="fill:#fff;fill-rule:nonzero;"/><path d="M264.282,155.036l17.146,-17.146c1.658,-1.658 1.701,-4.319 0.043,-5.977c-1.658,-1.658 -4.363,-1.658 -6.02,0l-13.831,13.83l-6.413,-6.414l11.649,-11.648c1.658,-1.658 1.701,-4.32 0.043,-5.977c-1.657,-1.658 -4.362,-1.658 -6.02,0l-11.649,11.648l-6.195,-6.195l13.612,-13.612c1.658,-1.658 1.701,-4.319 0.043,-5.977c-1.658,-1.658 -4.363,-1.658 -6.02,0l-16.928,16.928c-1.876,1.876 -1.876,4.843 0,6.719l23.821,23.821c1.876,1.876 4.843,1.876 6.719,0Z" style="fill:#fff;fill-rule:nonzero;"/><path d="M286.794,125.805c1.876,1.876 4.843,1.876 6.719,0l8.551,-8.552c9.598,-9.598 9.555,-22.904 0.96,-31.499l-0.087,-0.088c-8.595,-8.594 -21.815,-8.551 -31.413,1.048l-8.551,8.551c-1.876,1.876 -1.876,4.842 0,6.718l23.821,23.822ZM290.808,116.381l-18.411,-18.411l5.191,-5.192c5.498,-5.497 13.002,-5.41 18.412,0l0.087,0.087c5.41,5.41 5.41,12.827 -0.087,18.324l-5.192,5.192Z" style="fill:#fff;fill-rule:nonzero;"/></g></svg>