<?xml version="1.0" encoding="UTF-8" standalone="no"?>
<svg width="22px" height="16px" viewBox="0 0 22 16" version="1.1" xmlns="http://www.w3.org/2000/svg" xmlns:xlink="http://www.w3.org/1999/xlink" xmlns:sketch="http://www.bohemiancoding.com/sketch/ns">
    <!-- Generator: Sketch 3.3.1 (12002) - http://www.bohemiancoding.com/sketch -->
    <title>Menu Toggle</title>
    <desc>Created with Sketch.</desc>
    <defs></defs>
    <g id="Page-1" stroke="none" stroke-width="1" fill="none" fill-rule="evenodd" sketch:type="MSPage">
        <g id="Menu-Toggle" sketch:type="MSLayerGroup" fill="#000000">
            <path d="M0,7.1845452 C0.585467913,7.1845452 1.05083984,6.71917327 1.05083984,6.13370536 L19.965957,6.13370536 C19.965957,6.71917327 20.431329,7.1845452 21.0167969,7.1845452 L21.0167969,8.08526507 C20.431329,8.08526507 19.965957,8.550637 19.965957,9.13610491 L1.05083984,9.13610491 C1.05083984,8.550637 0.585467913,8.08526507 0,8.08526507 L0,7.1845452 Z M0,13.1893443 C0.585467913,13.1893443 1.05083984,12.7239724 1.05083984,12.1385045 L19.965957,12.1385045 C19.965957,12.7239724 20.431329,13.1893443 21.0167969,13.1893443 L21.0167969,14.0900642 C20.431329,14.0900642 19.965957,14.5554361 19.965957,15.140904 L1.05083984,15.140904 C1.05083984,14.5554361 0.585467913,14.0900642 0,14.0900642 L0,13.1893443 Z M0,1.17974609 C0.585467913,1.17974609 1.05083984,0.714374163 1.05083984,0.12890625 L19.965957,0.12890625 C19.965957,0.714374163 20.431329,1.17974609 21.0167969,1.17974609 L21.0167969,2.08046596 C20.431329,2.08046596 19.965957,2.54583789 19.965957,3.1313058 L1.05083984,3.1313058 C1.05083984,2.54583789 0.585467913,2.08046596 0,2.08046596 L0,1.17974609 Z" id="Shape" sketch:type="MSShapeGroup"></path>
        </g>
    </g>
</svg>