<?xml version="1.0" standalone="no"?><!DOCTYPE svg PUBLIC "-//W3C//DTD SVG 1.1//EN" "http://www.w3.org/Graphics/SVG/1.1/DTD/svg11.dtd"><svg width="100%" height="100%" viewBox="0 0 2609 580" version="1.1" xmlns="http://www.w3.org/2000/svg" xmlns:xlink="http://www.w3.org/1999/xlink" xml:space="preserve" style="fill-rule:evenodd;clip-rule:evenodd;stroke-linejoin:round;stroke-miterlimit:1.41421;"><g id="Layer1"><g><path d="M147.168,370.662l91.6535,0l0,-250.394l99.2126,0l0,-80.315l-290.079,0l0,80.315l99.2126,0l0,250.394Z" style="fill:#1f80b8;fill-rule:nonzero;"/><path d="M356.932,370.662l268.346,0l0,-77.9528l-177.638,0l0,-52.4409l158.74,0l0,-72.2835l-158.74,0l0,-50.0787l175.276,0l0,-77.9528l-265.984,0l0,330.709Z" style="fill:#1f80b8;fill-rule:nonzero;"/><path d="M780.711,376.331c80.315,0 133.701,-40.1575 133.701,-107.717l0,-0.944882c0,-61.8898 -47.2441,-86.4567 -123.307,-102.992c-45.8268,-10.3937 -57.1654,-17.0079 -57.1654,-32.126l0,-0.944882c0,-11.811 10.8661,-21.2598 33.0709,-21.2598c29.2913,0 62.3622,11.3386 92.5984,32.5984l45.8268,-64.7244c-35.9055,-28.8189 -79.8425,-43.937 -136.063,-43.937c-79.3701,0 -128.031,44.4094 -128.031,105.827l0,0.944882c0,68.0315 54.3307,87.874 124.724,103.937c44.8819,10.3937 55.748,17.9528 55.748,31.6535l0,0.944882c0,14.1732 -13.2283,22.6772 -37.7953,22.6772c-38.2677,0 -74.6457,-13.7008 -107.244,-39.685l-51.0236,60.9449c40.6299,36.378 96.378,54.8031 154.961,54.8031Z" style="fill:#1f80b8;fill-rule:nonzero;"/><path d="M1008.9,370.662l63.6876,0l27.9659,-104.535l0,-145.859l39.4965,0l21.5061,-80.315l-251.869,2.84217e-14l0,80.315l99.2126,0l0,250.394Z" style="fill:#1f80b8;fill-rule:nonzero;"/><path d="M1149.66,370.662l124.669,0c119.055,0 188.504,-70.8661 188.504,-166.299l0,-0.944882c0,-95.4331 -68.5039,-163.465 -186.614,-163.465l-38.5591,0l-88,330.709ZM1240.32,289.402l0,-168.189l37.3228,0c54.8031,0 91.1811,30.7087 91.1811,83.622l0,0.944882c0,53.3858 -36.378,83.622 -91.1811,83.622l-37.3228,0Z" style="fill:#2e2e2e;fill-rule:nonzero;"/><path d="M1488.82,370.662l91.6535,0l0,-100.157l40.1575,0l66.6142,100.157l105.827,0l-78.8976,-115.276c41.1024,-17.4803 68.0315,-51.0236 68.0315,-101.575l0,-0.944882c0,-32.5984 -9.92126,-58.1102 -29.2913,-77.0079c-22.2047,-22.6772 -57.1654,-35.9055 -107.717,-35.9055l-156.378,0l0,330.709ZM1580.48,198.694l0,-79.3701l60,0c30.7087,0 49.6063,13.2283 49.6063,39.2126l0,0.944882c0,24.0945 -17.9528,39.2126 -49.1339,39.2126l-60.4724,0Z" style="fill:#2e2e2e;fill-rule:nonzero;"/><rect x="1809.14" y="39.9534" width="92.126" height="330.709" style="fill:#2e2e2e;fill-rule:nonzero;"/><path d="M2048.19,373.024l85.0394,0l134.173,-333.071l-100.63,0l-75.1181,209.291l-75.1181,-209.291l-102.52,0l134.173,333.071Z" style="fill:#2e2e2e;fill-rule:nonzero;"/><path d="M2278.27,370.662l268.346,0l0,-77.9528l-177.638,0l0,-52.4409l158.74,0l0,-72.2835l-158.74,0l0,-50.0787l175.276,0l0,-77.9528l-265.984,0l0,330.709Z" style="fill:#2e2e2e;fill-rule:nonzero;"/></g><path d="M1103.3,357.622l11.7228,-43.75l22.8448,0l-11.7228,43.75c-7.61494,0 -15.2299,0 -22.8448,0ZM1126.74,270.122l11.7228,-43.75l22.8448,0l-11.7228,43.75c-7.61494,0 -15.2299,0 -22.8448,0ZM1150.19,182.622l11.7228,-43.75l22.8448,0l-11.7228,43.75c-7.61494,0 -15.2299,0 -22.8448,0ZM1173.64,95.1223l11.7228,-43.75l22.8448,0l-11.7228,43.75c-7.61494,0 -15.2299,0 -22.8448,0Z" style="fill:#e8e8e8;fill-rule:nonzero;"/><g><path d="M1683.74,461.721c0,2.42192 1.98157,4.4035 4.4035,4.4035c2.49531,0 4.47689,-1.98157 4.47689,-4.4035l0,-1.98157c2.71549,3.59619 6.75203,6.82542 13.2105,6.82542c9.17395,0 17.9809,-7.26577 17.9809,-20.1093l0,-0.146783c0,-12.9169 -8.88038,-20.1093 -17.9809,-20.1093c-6.31168,0 -10.3482,3.22923 -13.2105,7.26577l0,-17.247c0,-2.49531 -1.98157,-4.4035 -4.47689,-4.4035c-2.49531,0 -4.4035,1.90818 -4.4035,4.4035l0,45.5028ZM1703.71,458.859c-6.01811,0 -11.3023,-4.99063 -11.3023,-12.4032l0,-0.146783c0,-7.41255 5.28419,-12.4032 11.3023,-12.4032c6.01811,0 11.0821,4.91724 11.0821,12.4032l0,0.146783c0,7.63273 -4.99063,12.4032 -11.0821,12.4032Z" style="fill:#757575;fill-opacity:0.713726;fill-rule:nonzero;"/><path d="M1738.93,477.721c6.23829,0 9.76108,-2.93566 13.0637,-10.862l14.1646,-33.9803c0.146783,-0.44035 0.366958,-1.39444 0.366958,-2.12836c0,-2.34853 -1.90818,-4.18332 -4.25671,-4.18332c-2.27514,0 -3.5228,1.54122 -4.25671,3.37601l-9.68769,25.7604l-10.4216,-25.7604c-0.807308,-2.05496 -2.05496,-3.37601 -4.3301,-3.37601c-2.49531,0 -4.4035,1.83479 -4.4035,4.3301c0,0.587133 0.220175,1.46783 0.513741,2.12836l14.3848,32.1455l-0.293566,0.807308c-1.46783,3.00906 -2.86227,4.10993 -5.50437,4.10993c-1.24766,0 -2.05496,-0.220175 -3.08245,-0.513741c-0.44035,-0.146783 -0.880699,-0.293566 -1.61462,-0.293566c-1.90818,0 -3.59619,1.46783 -3.59619,3.66958c0,2.12836 1.46783,3.22923 2.78888,3.66958c1.83479,0.733916 3.66958,1.10087 6.16489,1.10087Z" style="fill:#757575;fill-opacity:0.713726;fill-rule:nonzero;"/><g><path d="M2341.78,500.458l0,-10.8491c-8.30334,-2.38931 -19.4394,-4.78834 -33.1741,-4.78834c-21.1489,0 -32.959,9.13961 -32.959,23.223l0,0.437074c0,14.0931 13.0899,22.3488 28.3776,22.3488c20.7191,0 37.7554,-12.5973 37.7554,-30.3715ZM2258.61,509.151l0,-0.437065c0,-23.6601 19.6543,-36.2574 48.2371,-36.2574c14.4184,0 24.6656,1.95225 34.7271,4.78834l0,-3.91421c0,-20.1732 -12.4842,-30.5949 -33.6232,-30.5949c-11.3511,0 -17.9741,1.43749 -26.2677,5.10891c-1.07455,0.437074 -2.17842,0.660467 -3.03804,0.660467c-3.92689,0 -7.42402,-3.2732 -7.42402,-7.16801c0,-3.45765 1.51412,-5.60417 4.58139,-6.95424c11.1068,-4.7883 19.4785,-6.3909 33.8871,-6.3909c15.913,0 28.1432,4.09869 36.4366,12.3642c7.63904,7.59538 11.5659,18.4444 11.5659,32.7608l0,61.9279c0,4.7592 -3.49713,8.22663 -8.08832,8.22663c-4.78661,0 -8.02978,-3.46742 -8.02978,-7.80898l0,-10.7034c-7.86368,10.208 -20.973,19.3088 -40.7934,19.3088c-20.973,0 -42.1708,-11.9272 -42.1708,-34.917ZM1822.33,435.016c-3.6925,-8.05179 -12.8261,-11.7135 -21.3638,-7.92552c-8.5377,3.75875 -11.6734,13.18 -7.81483,21.2415l35.8115,77.3905c5.62668,12.1408 11.566,18.5026 22.7021,18.5026c11.9078,0 17.0852,-6.92513 22.7119,-18.5026c0,0 31.2398,-67.6293 31.5622,-68.3189c0.31259,-0.738161 1.31871,-2.91377 4.49353,-2.89435c2.68633,0.0291383 4.9429,2.15619 4.9429,5.002l0,66.1529c0,10.1886 5.69506,18.5609 16.6358,18.5609c10.9212,0 16.8409,-8.37232 16.8409,-18.5609l0,-54.1092c0,-10.4411 7.51206,-17.2108 17.769,-17.2108c10.2472,0 17.0657,7.00281 17.0657,17.2108l0,54.1092c0,10.1886 5.71458,18.5609 16.6358,18.5609c10.9309,0 16.8703,-8.37232 16.8703,-18.5609l0,-54.1092c0,-10.4411 7.48265,-17.2108 17.7494,-17.2108c10.2277,0 17.0852,7.00281 17.0852,17.2108l0,54.1092c0,10.1886 5.69506,18.5609 16.6163,18.5609c10.931,0 16.8507,-8.37232 16.8507,-18.5609l0,-61.588c0,-22.6402 -18.2964,-38.501 -40.3245,-38.501c-21.9988,0 -35.7821,15.142 -35.7821,15.142c-7.32645,-9.44071 -17.4174,-15.1226 -34.4928,-15.1226c-18.0425,0 -33.8187,15.1226 -33.8187,15.1226c-7.32645,-9.44071 -19.8106,-15.1226 -30.136,-15.1226c-15.9813,0 -28.6608,6.9931 -36.4073,24.5924l-22.8681,53.5945l-29.3349,-68.7656ZM2572.25,439.527l0,-0.0291383c0,-6.24521 -4.82564,-11.3444 -11.2729,-11.3444c-6.39839,0 -11.3217,5.19632 -11.3217,11.3735l0,0.0679893c0,6.21607 4.87447,11.325 11.3217,11.325c6.36916,0 11.2729,-5.19632 11.2729,-11.393ZM2547.03,439.614l0,-0.0874148c0,-7.57586 6.18355,-13.9474 13.9495,-13.9474c7.87348,0 13.9593,6.31329 13.9593,13.8892l0,0.0582765c0,7.605 -6.15414,13.9765 -13.9593,13.9765c-7.88319,0 -13.9495,-6.28406 -13.9495,-13.8891ZM2128.06,535.534l-34.2973,-94.9704c-0.449371,-1.31122 -1.10387,-3.04009 -1.10387,-4.56491c0,-4.11821 3.50693,-8.02265 8.51818,-8.02265c4.36655,0 7.21889,2.82632 8.52789,6.94453l28.4265,81.8292l28.6023,-82.0623c1.30899,-3.8851 3.9465,-6.71143 8.30325,-6.71143l0.869425,0c4.60099,0 7.44362,2.82632 8.74282,6.71143l28.407,82.0623l28.8562,-82.2565c1.11367,-3.48688 3.49722,-6.51717 8.08841,-6.51717c4.81583,0 8.32276,3.68105 8.32276,7.80897c0,1.5249 -0.66421,3.24397 -1.08426,4.56491l-34.5416,95.1841c-1.77788,4.97289 -5.25549,7.58559 -9.18248,7.58559l-0.66421,0c-4.36655,0 -7.65855,-2.61271 -9.18248,-7.58559l-28.1724,-80.6928l-28.4265,80.6928c-1.52392,4.97289 -4.80612,7.58559 -9.17267,7.58559l-0.459084,0c-4.14191,0 -7.62924,-2.61271 -9.3778,-7.58559ZM2378.1,436.25c0,-4.58442 3.70225,-8.48886 8.30325,-8.48886c4.84524,0 8.54749,3.69076 8.54749,8.48886l0,19.2796c8.31305,-18.726 26.7463,-27.5548 38.957,-27.5548c5.05028,0 8.35208,3.69076 8.35208,8.47915c0,4.57462 -3.06736,7.82839 -7.47294,8.48886c-21.8815,2.61273 -39.8361,18.9397 -39.8361,51.38l0,38.1513c0,4.56495 -3.51664,8.47915 -8.30325,8.47915c-4.84524,0 -8.54749,-3.70052 -8.54749,-8.47915l0,-98.2241ZM2529.15,479.597c-1.73885,-20.2509 -13.3341,-37.8988 -35.411,-37.8988c-19.3123,0 -33.8871,16.1425 -36.0068,37.8988l71.4178,0ZM2496.32,544.011c-30.4584,0 -55.329,-23.4852 -55.329,-57.936l0,-0.456491c0,-32.0712 22.5067,-57.936 53.1896,-57.936c32.793,0 51.4705,26.9138 51.4705,56.4403c0,4.53581 -3.68274,7.76042 -7.7269,7.76042l-80.1899,0c2.33463,24.1165 19.2733,37.6948 39.0253,37.6948c13.715,0 23.7864,-5.39053 31.9529,-12.9373c1.27968,-1.05868 2.784,-1.9134 4.70837,-1.9134c4.08328,0 7.31665,3.22461 7.31665,7.10967c0,1.93282 -0.859623,3.87535 -2.59839,5.37111c-10.4915,10.1303 -22.9365,16.8029 -41.8191,16.8029Z" style="fill:#d21515;"/><clipPath id="tag1"><path d="M2341.78,500.458l0,-10.8491c-8.30334,-2.38931 -19.4394,-4.78834 -33.1741,-4.78834c-21.1489,0 -32.959,9.13961 -32.959,23.223l0,0.437074c0,14.0931 13.0899,22.3488 28.3776,22.3488c20.7191,0 37.7554,-12.5973 37.7554,-30.3715ZM2258.61,509.151l0,-0.437065c0,-23.6601 19.6543,-36.2574 48.2371,-36.2574c14.4184,0 24.6656,1.95225 34.7271,4.78834l0,-3.91421c0,-20.1732 -12.4842,-30.5949 -33.6232,-30.5949c-11.3511,0 -17.9741,1.43749 -26.2677,5.10891c-1.07455,0.437074 -2.17842,0.660467 -3.03804,0.660467c-3.92689,0 -7.42402,-3.2732 -7.42402,-7.16801c0,-3.45765 1.51412,-5.60417 4.58139,-6.95424c11.1068,-4.7883 19.4785,-6.3909 33.8871,-6.3909c15.913,0 28.1432,4.09869 36.4366,12.3642c7.63904,7.59538 11.5659,18.4444 11.5659,32.7608l0,61.9279c0,4.7592 -3.49713,8.22663 -8.08832,8.22663c-4.78661,0 -8.02978,-3.46742 -8.02978,-7.80898l0,-10.7034c-7.86368,10.208 -20.973,19.3088 -40.7934,19.3088c-20.973,0 -42.1708,-11.9272 -42.1708,-34.917ZM1822.33,435.016c-3.6925,-8.05179 -12.8261,-11.7135 -21.3638,-7.92552c-8.5377,3.75875 -11.6734,13.18 -7.81483,21.2415l35.8115,77.3905c5.62668,12.1408 11.566,18.5026 22.7021,18.5026c11.9078,0 17.0852,-6.92513 22.7119,-18.5026c0,0 31.2398,-67.6293 31.5622,-68.3189c0.31259,-0.738161 1.31871,-2.91377 4.49353,-2.89435c2.68633,0.0291383 4.9429,2.15619 4.9429,5.002l0,66.1529c0,10.1886 5.69506,18.5609 16.6358,18.5609c10.9212,0 16.8409,-8.37232 16.8409,-18.5609l0,-54.1092c0,-10.4411 7.51206,-17.2108 17.769,-17.2108c10.2472,0 17.0657,7.00281 17.0657,17.2108l0,54.1092c0,10.1886 5.71458,18.5609 16.6358,18.5609c10.9309,0 16.8703,-8.37232 16.8703,-18.5609l0,-54.1092c0,-10.4411 7.48265,-17.2108 17.7494,-17.2108c10.2277,0 17.0852,7.00281 17.0852,17.2108l0,54.1092c0,10.1886 5.69506,18.5609 16.6163,18.5609c10.931,0 16.8507,-8.37232 16.8507,-18.5609l0,-61.588c0,-22.6402 -18.2964,-38.501 -40.3245,-38.501c-21.9988,0 -35.7821,15.142 -35.7821,15.142c-7.32645,-9.44071 -17.4174,-15.1226 -34.4928,-15.1226c-18.0425,0 -33.8187,15.1226 -33.8187,15.1226c-7.32645,-9.44071 -19.8106,-15.1226 -30.136,-15.1226c-15.9813,0 -28.6608,6.9931 -36.4073,24.5924l-22.8681,53.5945l-29.3349,-68.7656ZM2572.25,439.527l0,-0.0291383c0,-6.24521 -4.82564,-11.3444 -11.2729,-11.3444c-6.39839,0 -11.3217,5.19632 -11.3217,11.3735l0,0.0679893c0,6.21607 4.87447,11.325 11.3217,11.325c6.36916,0 11.2729,-5.19632 11.2729,-11.393ZM2547.03,439.614l0,-0.0874148c0,-7.57586 6.18355,-13.9474 13.9495,-13.9474c7.87348,0 13.9593,6.31329 13.9593,13.8892l0,0.0582765c0,7.605 -6.15414,13.9765 -13.9593,13.9765c-7.88319,0 -13.9495,-6.28406 -13.9495,-13.8891ZM2128.06,535.534l-34.2973,-94.9704c-0.449371,-1.31122 -1.10387,-3.04009 -1.10387,-4.56491c0,-4.11821 3.50693,-8.02265 8.51818,-8.02265c4.36655,0 7.21889,2.82632 8.52789,6.94453l28.4265,81.8292l28.6023,-82.0623c1.30899,-3.8851 3.9465,-6.71143 8.30325,-6.71143l0.869425,0c4.60099,0 7.44362,2.82632 8.74282,6.71143l28.407,82.0623l28.8562,-82.2565c1.11367,-3.48688 3.49722,-6.51717 8.08841,-6.51717c4.81583,0 8.32276,3.68105 8.32276,7.80897c0,1.5249 -0.66421,3.24397 -1.08426,4.56491l-34.5416,95.1841c-1.77788,4.97289 -5.25549,7.58559 -9.18248,7.58559l-0.66421,0c-4.36655,0 -7.65855,-2.61271 -9.18248,-7.58559l-28.1724,-80.6928l-28.4265,80.6928c-1.52392,4.97289 -4.80612,7.58559 -9.17267,7.58559l-0.459084,0c-4.14191,0 -7.62924,-2.61271 -9.3778,-7.58559ZM2378.1,436.25c0,-4.58442 3.70225,-8.48886 8.30325,-8.48886c4.84524,0 8.54749,3.69076 8.54749,8.48886l0,19.2796c8.31305,-18.726 26.7463,-27.5548 38.957,-27.5548c5.05028,0 8.35208,3.69076 8.35208,8.47915c0,4.57462 -3.06736,7.82839 -7.47294,8.48886c-21.8815,2.61273 -39.8361,18.9397 -39.8361,51.38l0,38.1513c0,4.56495 -3.51664,8.47915 -8.30325,8.47915c-4.84524,0 -8.54749,-3.70052 -8.54749,-8.47915l0,-98.2241ZM2529.15,479.597c-1.73885,-20.2509 -13.3341,-37.8988 -35.411,-37.8988c-19.3123,0 -33.8871,16.1425 -36.0068,37.8988l71.4178,0ZM2496.32,544.011c-30.4584,0 -55.329,-23.4852 -55.329,-57.936l0,-0.456491c0,-32.0712 22.5067,-57.936 53.1896,-57.936c32.793,0 51.4705,26.9138 51.4705,56.4403c0,4.53581 -3.68274,7.76042 -7.7269,7.76042l-80.1899,0c2.33463,24.1165 19.2733,37.6948 39.0253,37.6948c13.715,0 23.7864,-5.39053 31.9529,-12.9373c1.27968,-1.05868 2.784,-1.9134 4.70837,-1.9134c4.08328,0 7.31665,3.22461 7.31665,7.10967c0,1.93282 -0.859623,3.87535 -2.59839,5.37111c-10.4915,10.1303 -22.9365,16.8029 -41.8191,16.8029Z"/></clipPath><g clip-path="url(#tag1)"><rect id="z" x="1790.79" y="421.001" width="784.149" height="124.751" style="fill:#929292;fill-rule:nonzero;"/></g><path d="M2555.63,445.432c0,0.67473 0.545909,1.21054 1.25357,1.21054c0.687441,0 1.23335,-0.535815 1.23335,-1.21054l0,-3.73086l3.13392,0l3.4372,4.30636c0.283064,0.377055 0.647003,0.63504 1.21313,0.63504c0.606565,0 1.19291,-0.456435 1.19291,-1.13116c0,-0.377055 -0.161751,-0.63504 -0.404377,-0.932715l-2.70932,-3.3538c1.90057,-0.575505 3.2148,-1.92496 3.2148,-4.1476l0,-0.03969c0,-1.21054 -0.424596,-2.24248 -1.17269,-2.99659c-0.909848,-0.87318 -2.30495,-1.38915 -4.08421,-1.38915l-5.05471,0c-0.707659,0 -1.25357,0.535815 -1.25357,1.23039l0,11.5498ZM2558.11,439.538l0,-4.66357l3.61917,0c1.83991,0 2.93173,0.813645 2.93173,2.30202l0,0.03969c0,1.40899 -1.13226,2.32186 -2.91151,2.32186l-3.63939,0Z" style="fill:#868686;fill-rule:nonzero;"/></g></g></g></svg>