<?xml version="1.0" standalone="no"?>
<!DOCTYPE svg PUBLIC "-//W3C//DTD SVG 1.1//EN" "http://www.w3.org/Graphics/SVG/1.1/DTD/svg11.dtd">
<svg width="100%" height="100%" viewBox="0 0 2739 536" version="1.1" xmlns="http://www.w3.org/2000/svg" xmlns:xlink="http://www.w3.org/1999/xlink" xml:space="preserve" style="fill-rule:evenodd;clip-rule:evenodd;stroke-linejoin:round;stroke-miterlimit:1.41421;">
    <g transform="matrix(1,0,0,1,-273,-1127)">
        <g id="Layer1">
            <g transform="matrix(1,0,0,1,-311.084,937.722)">
                <path d="M683.63,521.502L775.284,521.502L775.284,271.108L874.496,271.108L874.496,190.793L584.418,190.793L584.418,271.108L683.63,271.108L683.63,521.502Z" style="fill:black;fill-rule:nonzero;"/>
                <path d="M914.654,521.502L1183,521.502L1183,443.549L1005.36,443.549L1005.36,391.108L1164.1,391.108L1164.1,318.825L1005.36,318.825L1005.36,268.746L1180.64,268.746L1180.64,190.793L914.654,190.793L914.654,521.502Z" style="fill:black;fill-rule:nonzero;"/>
                <path d="M1359.69,527.171C1440.01,527.171 1493.39,487.014 1493.39,419.455L1493.39,418.51C1493.39,356.62 1446.15,332.053 1370.09,315.518C1324.26,305.124 1312.92,298.51 1312.92,283.392L1312.92,282.447C1312.92,270.636 1323.79,261.187 1345.99,261.187C1375.28,261.187 1408.36,272.526 1438.59,293.786L1484.42,229.061C1448.51,200.242 1404.58,185.124 1348.36,185.124C1268.99,185.124 1220.32,229.534 1220.32,290.951L1220.32,291.896C1220.32,359.927 1274.65,379.77 1345.05,395.833C1389.93,406.227 1400.8,413.786 1400.8,427.486L1400.8,428.431C1400.8,442.604 1387.57,451.108 1363,451.108C1324.73,451.108 1288.36,437.408 1255.76,411.423L1204.73,472.368C1245.36,508.746 1301.11,527.171 1359.69,527.171Z" style="fill:black;fill-rule:nonzero;"/>
                <path d="M1609.14,521.502L1700.8,521.502L1700.8,271.108L1800.01,271.108L1800.01,190.793L1509.93,190.793L1509.93,271.108L1609.14,271.108L1609.14,521.502Z" style="fill:black;fill-rule:nonzero;"/>
                <path d="M1840.17,521.502L1965.84,521.502C2084.89,521.502 2154.34,450.636 2154.34,355.203L2154.34,354.258C2154.34,258.825 2085.84,190.793 1967.73,190.793L1840.17,190.793L1840.17,521.502ZM1931.82,440.242L1931.82,272.053L1969.14,272.053C2023.94,272.053 2060.32,302.762 2060.32,355.675L2060.32,356.62C2060.32,410.006 2023.94,440.242 1969.14,440.242L1931.82,440.242Z" style="fill:black;fill-rule:nonzero;"/>
                <path d="M2201.58,521.502L2293.24,521.502L2293.24,421.345L2333.39,421.345L2400.01,521.502L2505.84,521.502L2426.94,406.227C2468.04,388.746 2494.97,355.203 2494.97,304.652L2494.97,303.707C2494.97,271.108 2485.05,245.597 2465.68,226.699C2443.47,204.022 2408.51,190.793 2357.96,190.793L2201.58,190.793L2201.58,521.502ZM2293.24,349.534L2293.24,270.164L2353.24,270.164C2383.95,270.164 2402.84,283.392 2402.84,309.376L2402.84,310.321C2402.84,334.416 2384.89,349.534 2353.71,349.534L2293.24,349.534Z" style="fill:black;fill-rule:nonzero;"/>
                <rect x="2543.16" y="190.793" width="92.126" height="330.709" style="fill:black;fill-rule:nonzero;"/>
                <path d="M2803.47,523.864L2888.51,523.864L3022.68,190.793L2922.05,190.793L2846.94,400.085L2771.82,190.793L2669.3,190.793L2803.47,523.864Z" style="fill:black;fill-rule:nonzero;"/>
                <path d="M3054.81,521.502L3323.16,521.502L3323.16,443.549L3145.52,443.549L3145.52,391.108L3304.26,391.108L3304.26,318.825L3145.52,318.825L3145.52,268.746L3320.8,268.746L3320.8,190.793L3054.81,190.793L3054.81,521.502Z" style="fill:black;fill-rule:nonzero;"/>
            </g>
            <g transform="matrix(2.92659,0,0,2.92659,-1869.47,-416.86)">
                <g transform="matrix(1.96871,0,0,1.96871,651.147,190.277)">
                    <path d="M322.042,246.35C322.042,246.878 322.474,247.31 323.002,247.31C323.546,247.31 323.978,246.878 323.978,246.35L323.978,245.918C324.57,246.702 325.45,247.406 326.858,247.406C328.858,247.406 330.778,245.822 330.778,243.022L330.778,242.99C330.778,240.174 328.842,238.606 326.858,238.606C325.482,238.606 324.602,239.31 323.978,240.19L323.978,236.43C323.978,235.886 323.546,235.47 323.002,235.47C322.458,235.47 322.042,235.886 322.042,236.43L322.042,246.35ZM326.394,245.726C325.082,245.726 323.93,244.638 323.93,243.022L323.93,242.99C323.93,241.374 325.082,240.286 326.394,240.286C327.706,240.286 328.81,241.358 328.81,242.99L328.81,243.022C328.81,244.686 327.722,245.726 326.394,245.726Z" style="fill:rgb(117,117,117);fill-opacity:0.713726;fill-rule:nonzero;"/>
                </g>
                <g transform="matrix(1.96871,0,0,1.96871,651.147,190.277)">
                    <path d="M334.074,249.838C335.434,249.838 336.202,249.198 336.922,247.47L340.01,240.062C340.042,239.966 340.09,239.758 340.09,239.598C340.09,239.086 339.674,238.686 339.162,238.686C338.666,238.686 338.394,239.022 338.234,239.422L336.122,245.038L333.85,239.422C333.674,238.974 333.402,238.686 332.906,238.686C332.362,238.686 331.946,239.086 331.946,239.63C331.946,239.758 331.994,239.95 332.058,240.094L335.194,247.102L335.13,247.278C334.81,247.934 334.506,248.174 333.93,248.174C333.658,248.174 333.482,248.126 333.258,248.062C333.162,248.03 333.066,247.998 332.906,247.998C332.49,247.998 332.122,248.318 332.122,248.798C332.122,249.262 332.442,249.502 332.73,249.598C333.13,249.758 333.53,249.838 334.074,249.838Z" style="fill:rgb(117,117,117);fill-opacity:0.713726;fill-rule:nonzero;"/>
                </g>
                <g>
                    <g transform="matrix(3.82447,0,0,3.82447,1331.1,657.791)">
                        <clipPath id="_clip1">
                            <path d="M61.834,8.917L61.834,7.699C60.902,7.431 59.652,7.162 58.111,7.162C55.738,7.162 54.412,8.188 54.412,9.768L54.412,9.817C54.412,11.399 55.881,12.325 57.597,12.325C59.922,12.325 61.834,10.912 61.834,8.917ZM52.5,9.893L52.5,9.843C52.5,7.188 54.706,5.775 57.914,5.775C59.532,5.775 60.682,5.994 61.811,6.312L61.811,5.873C61.811,3.609 60.41,2.439 58.038,2.439C56.764,2.439 56.02,2.6 55.09,3.013C54.969,3.062 54.845,3.087 54.749,3.087C54.308,3.087 53.916,2.719 53.916,2.282C53.916,1.894 54.086,1.653 54.43,1.502C55.676,0.964 56.616,0.785 58.233,0.785C60.019,0.785 61.391,1.245 62.322,2.172C63.179,3.025 63.62,4.242 63.62,5.849L63.62,12.798C63.62,13.333 63.227,13.722 62.712,13.722C62.175,13.722 61.811,13.333 61.811,12.845L61.811,11.644C60.928,12.79 59.457,13.811 57.233,13.811C54.879,13.811 52.5,12.473 52.5,9.893ZM3.539,1.573C3.125,0.669 2.1,0.258 1.142,0.683C0.184,1.105 -0.168,2.163 0.265,3.067L4.284,11.752C4.915,13.115 5.582,13.829 6.831,13.829C8.168,13.829 8.749,13.052 9.38,11.752C9.38,11.752 12.886,4.163 12.922,4.085C12.957,4.002 13.07,3.758 13.427,3.76C13.728,3.764 13.981,4.002 13.981,4.322L13.981,11.746C13.981,12.889 14.62,13.829 15.848,13.829C17.074,13.829 17.738,12.889 17.738,11.746L17.738,5.673C17.738,4.502 18.581,3.742 19.732,3.742C20.882,3.742 21.647,4.528 21.647,5.673L21.647,11.746C21.647,12.889 22.289,13.829 23.514,13.829C24.741,13.829 25.408,12.889 25.408,11.746L25.408,5.673C25.408,4.502 26.247,3.742 27.399,3.742C28.547,3.742 29.317,4.528 29.317,5.673L29.317,11.746C29.317,12.889 29.956,13.829 31.182,13.829C32.408,13.829 33.073,12.889 33.073,11.746L33.073,4.834C33.073,2.293 31.019,0.513 28.547,0.513C26.078,0.513 24.532,2.213 24.532,2.213C23.709,1.153 22.577,0.516 20.661,0.516C18.636,0.516 16.866,2.213 16.866,2.213C16.043,1.153 14.642,0.516 13.484,0.516C11.69,0.516 10.267,1.3 9.398,3.275L6.831,9.29L3.539,1.573ZM87.699,2.079L87.699,2.076C87.699,1.375 87.157,0.803 86.433,0.803C85.715,0.803 85.163,1.386 85.163,2.079L85.163,2.087C85.163,2.784 85.71,3.358 86.433,3.358C87.148,3.358 87.699,2.774 87.699,2.079ZM84.868,2.089L84.868,2.079C84.868,1.229 85.562,0.514 86.433,0.514C87.317,0.514 88,1.222 88,2.073L88,2.079C88,2.933 87.309,3.648 86.433,3.648C85.549,3.648 84.868,2.942 84.868,2.089ZM37.85,12.853L34.001,2.195C33.951,2.048 33.877,1.854 33.877,1.683C33.877,1.221 34.271,0.783 34.833,0.783C35.323,0.783 35.643,1.1 35.79,1.562L38.98,10.745L42.19,1.536C42.337,1.1 42.633,0.783 43.122,0.783L43.219,0.783C43.736,0.783 44.055,1.1 44.201,1.536L47.388,10.745L50.627,1.514C50.752,1.123 51.019,0.783 51.535,0.783C52.075,0.783 52.469,1.196 52.469,1.659C52.469,1.83 52.394,2.023 52.347,2.171L48.47,12.853C48.271,13.411 47.881,13.705 47.44,13.705L47.365,13.705C46.875,13.705 46.506,13.411 46.335,12.853L43.173,3.798L39.983,12.853C39.812,13.411 39.444,13.705 38.954,13.705L38.902,13.705C38.438,13.705 38.046,13.411 37.85,12.853ZM65.911,1.711C65.911,1.197 66.326,0.759 66.842,0.759C67.386,0.759 67.802,1.173 67.802,1.711L67.802,3.875C68.735,1.773 70.803,0.783 72.174,0.783C72.74,0.783 73.111,1.197 73.111,1.734C73.111,2.248 72.767,2.613 72.272,2.687C69.817,2.98 67.802,4.812 67.802,8.453L67.802,12.734C67.802,13.247 67.407,13.686 66.87,13.686C66.326,13.686 65.911,13.271 65.911,12.734L65.911,1.711ZM82.862,6.576C82.667,4.303 81.365,2.323 78.888,2.323C76.721,2.323 75.085,4.134 74.847,6.576L82.862,6.576ZM79.177,13.805C75.759,13.805 72.968,11.169 72.968,7.303L72.968,7.252C72.968,3.652 75.494,0.75 78.937,0.75C82.617,0.75 84.713,3.77 84.713,7.084C84.713,7.593 84.3,7.955 83.846,7.955L74.847,7.955C75.109,10.661 77.01,12.185 79.227,12.185C80.766,12.185 81.896,11.58 82.813,10.733C82.956,10.614 83.125,10.518 83.341,10.518C83.799,10.518 84.162,10.88 84.162,11.316C84.162,11.533 84.066,11.751 83.87,11.919C82.693,13.056 81.296,13.805 79.177,13.805Z"/>
                        </clipPath>
                        <g clip-path="url(#_clip1)">
                            <rect id="z" x="0" y="0" width="88" height="14" style="fill:rgb(146,146,146);fill-rule:nonzero;"/>
                        </g>
                    </g>
                    <g transform="matrix(1.1847,0,0,1.1628,-306.156,-101.018)">
                        <path d="M1659.08,661.591C1659.08,661.84 1659.28,662.037 1659.54,662.037C1659.79,662.037 1659.98,661.84 1659.98,661.591L1659.98,660.213L1661.12,660.213L1662.36,661.803C1662.47,661.942 1662.6,662.037 1662.8,662.037C1663.02,662.037 1663.24,661.869 1663.24,661.62C1663.24,661.481 1663.18,661.385 1663.09,661.276L1662.11,660.038C1662.8,659.825 1663.27,659.327 1663.27,658.507L1663.27,658.492C1663.27,658.045 1663.12,657.664 1662.85,657.386C1662.52,657.064 1662.01,656.873 1661.37,656.873L1659.54,656.873C1659.28,656.873 1659.08,657.071 1659.08,657.327L1659.08,661.591ZM1659.98,659.415L1659.98,657.694L1661.29,657.694C1661.96,657.694 1662.36,657.994 1662.36,658.543L1662.36,658.558C1662.36,659.078 1661.95,659.415 1661.3,659.415L1659.98,659.415Z" style="fill:rgb(134,134,134);fill-rule:nonzero;"/>
                    </g>
                </g>
            </g>
        </g>
    </g>
</svg>