<?xml version="1.0" standalone="no"?><!DOCTYPE svg PUBLIC "-//W3C//DTD SVG 1.1//EN" "http://www.w3.org/Graphics/SVG/1.1/DTD/svg11.dtd"><svg width="100%" height="100%" viewBox="0 0 2822 425" version="1.1" xmlns="http://www.w3.org/2000/svg" xmlns:xlink="http://www.w3.org/1999/xlink" xml:space="preserve" style="fill-rule:evenodd;clip-rule:evenodd;stroke-linejoin:round;stroke-miterlimit:1.41421;"><g id="Layer1"><g><path d="M136.546,375.224l91.6535,0l0,-250.394l99.2126,0l0,-80.315l-290.079,0l0,80.315l99.2126,0l0,250.394Z" style="fill:#000;fill-rule:nonzero;"/><path d="M367.57,375.224l268.346,0l0,-77.9528l-177.638,0l0,-52.4409l158.74,0l0,-72.2835l-158.74,0l0,-50.0787l175.276,0l0,-77.9528l-265.984,0l0,330.709Z" style="fill:#000;fill-rule:nonzero;"/><path d="M812.609,380.893c80.315,0 133.701,-40.1575 133.701,-107.717l0,-0.944882c0,-61.8898 -47.2441,-86.4567 -123.307,-102.992c-45.8268,-10.3937 -57.1654,-17.0079 -57.1654,-32.126l0,-0.944882c0,-11.811 10.8661,-21.2598 33.0709,-21.2598c29.2913,0 62.3622,11.3386 92.5984,32.5984l45.8268,-64.7244c-35.9055,-28.8189 -79.8425,-43.937 -136.063,-43.937c-79.3701,0 -128.031,44.4094 -128.031,105.827l0,0.944882c0,68.0315 54.3307,87.874 124.724,103.937c44.8819,10.3937 55.748,17.9528 55.748,31.6535l0,0.944882c0,14.1732 -13.2283,22.6772 -37.7953,22.6772c-38.2677,0 -74.6457,-13.7008 -107.244,-39.685l-51.0236,60.9449c40.6299,36.378 96.378,54.8031 154.961,54.8031Z" style="fill:#000;fill-rule:nonzero;"/><path d="M1062.06,375.224l91.6535,0l0,-250.394l99.2126,0l0,-80.315l-290.079,0l0,80.315l99.2126,0l0,250.394Z" style="fill:#000;fill-rule:nonzero;"/><path d="M1293.08,375.224l125.669,0c119.055,0 188.504,-70.8661 188.504,-166.299l0,-0.944882c0,-95.4331 -68.5039,-163.465 -186.614,-163.465l-127.559,0l0,330.709ZM1384.74,293.964l0,-168.189l37.3228,0c54.8031,0 91.1811,30.7087 91.1811,83.622l0,0.944882c0,53.3858 -36.378,83.622 -91.1811,83.622l-37.3228,0Z" style="fill:#000;fill-rule:nonzero;"/><path d="M1654.5,375.224l91.6535,0l0,-100.157l40.1575,0l66.6142,100.157l105.827,0l-78.8976,-115.276c41.1024,-17.4803 68.0315,-51.0236 68.0315,-101.575l0,-0.944882c0,-32.5984 -9.92126,-58.1102 -29.2913,-77.0079c-22.2047,-22.6772 -57.1654,-35.9055 -107.717,-35.9055l-156.378,0l0,330.709ZM1746.15,203.255l0,-79.3701l60,0c30.7087,0 49.6063,13.2283 49.6063,39.2126l0,0.944882c0,24.0945 -17.9528,39.2126 -49.1339,39.2126l-60.4724,0Z" style="fill:#000;fill-rule:nonzero;"/><rect x="1996.07" y="44.5153" width="92.126" height="330.709" style="fill:#000;fill-rule:nonzero;"/><path d="M2256.39,377.586l85.0394,0l134.173,-333.071l-100.63,0l-75.1181,209.291l-75.1181,-209.291l-102.52,0l134.173,333.071Z" style="fill:#000;fill-rule:nonzero;"/><path d="M2507.73,375.224l268.346,0l0,-77.9528l-177.638,0l0,-52.4409l158.74,0l0,-72.2835l-158.74,0l0,-50.0787l175.276,0l0,-77.9528l-265.984,0l0,330.709Z" style="fill:#000;fill-rule:nonzero;"/></g><g><g></g></g></g></svg>