<?xml version="1.0" encoding="UTF-8" standalone="no"?>
<svg width="56px" height="57px" viewBox="0 0 56 57" version="1.1" xmlns="http://www.w3.org/2000/svg" xmlns:xlink="http://www.w3.org/1999/xlink" xmlns:sketch="http://www.bohemiancoding.com/sketch/ns">
    <!-- Generator: Sketch 3.3.1 (12002) - http://www.bohemiancoding.com/sketch -->
    <title>widget_activity</title>
    <desc>Created with Sketch.</desc>
    <defs></defs>
    <g id="SVGs" stroke="none" stroke-width="1" fill="none" fill-rule="evenodd" sketch:type="MSPage">
        <g id="Artboard-1" sketch:type="MSArtboardGroup" transform="translate(-450.000000, -47.000000)" fill="#000000">
            <g id="Person-Copy-2" sketch:type="MSLayerGroup" transform="translate(450.500000, 47.431818)">
                <path d="M0,1.73395324e-06 L55,1.73395324e-06 L55,56.0000017 L0,56.0000017 L0,1.73395324e-06 Z M18.75,30.5735132 C18.75,29.8802128 19.304831,29.3181818 20,29.3181818 C20.6903559,29.3181818 21.25,29.8819008 21.25,30.5735132 L21.25,35.5628504 C21.25,36.2561508 20.695169,36.8181818 20,36.8181818 C19.3096441,36.8181818 18.75,36.2544628 18.75,35.5628504 L18.75,30.5735132 Z M23.75,26.8151126 C23.75,26.1264518 24.304831,25.5681818 25,25.5681818 C25.6903559,25.5681818 26.25,26.1260711 26.25,26.8151126 L26.25,35.571251 C26.25,36.2599119 25.695169,36.8181818 25,36.8181818 C24.3096441,36.8181818 23.75,36.2602926 23.75,35.571251 L23.75,26.8151126 Z M28.75,23.0712734 C28.75,22.37921 29.304831,21.8181818 30,21.8181818 C30.6903559,21.8181818 31.25,22.3698293 31.25,23.0712734 L31.25,35.5650902 C31.25,36.2571536 30.695169,36.8181818 30,36.8181818 C29.3096441,36.8181818 28.75,36.2665343 28.75,35.5650902 L28.75,23.0712734 Z M33.75,20.5767387 C33.75,19.8816569 34.304831,19.3181818 35,19.3181818 C35.6903559,19.3181818 36.25,19.8806178 36.25,20.5767387 L36.25,35.559625 C36.25,36.2547067 35.695169,36.8181818 35,36.8181818 C34.3096441,36.8181818 33.75,36.2557459 33.75,35.559625 L33.75,20.5767387 Z M12.5,15.0597988 C12.5,13.9598591 13.3978404,13.0681818 14.491617,13.0681818 L40.508383,13.0681818 C41.6083227,13.0681818 42.5,13.9660222 42.5,15.0597988 L42.5,41.0765648 C42.5,42.1765045 41.6021596,43.0681818 40.508383,43.0681818 L14.491617,43.0681818 C13.3916773,43.0681818 12.5,42.1703414 12.5,41.0765648 L12.5,15.0597988 Z M14.5,15.0597988 L14.5,41.0765648 C14.5,41.0688553 14.4993279,41.0681818 14.491617,41.0681818 L40.508383,41.0681818 C40.5006735,41.0681818 40.5,41.0688539 40.5,41.0765648 L40.5,15.0597988 C40.5,15.0675083 40.5006721,15.0681818 40.508383,15.0681818 L14.491617,15.0681818 C14.4993265,15.0681818 14.5,15.0675098 14.5,15.0597988 L14.5,15.0597988 Z" id="widget_activity" sketch:type="MSShapeGroup"></path>
            </g>
        </g>
    </g>
</svg>