<?xml version="1.0" encoding="UTF-8" standalone="no"?>
<svg width="150px" height="150px" viewBox="0 0 150 150" version="1.1" xmlns="http://www.w3.org/2000/svg" xmlns:xlink="http://www.w3.org/1999/xlink" xmlns:sketch="http://www.bohemiancoding.com/sketch/ns">
    <!-- Generator: Sketch 3.3.1 (12002) - http://www.bohemiancoding.com/sketch -->
    <title>Airwatch</title>
    <desc>Created with Sketch.</desc>
    <defs>
        <rect id="path-1" x="0" y="0" width="150" height="150" rx="13"></rect>
    </defs>
    <g id="Page-1" stroke="none" stroke-width="1" fill="none" fill-rule="evenodd" sketch:type="MSPage">
        <g id="Airwatch" sketch:type="MSLayerGroup">
            <mask id="mask-2" sketch:name="Mask" fill="white">
                <use xlink:href="#path-1"></use>
            </mask>
            <use id="Mask" fill="#D5D5D5" sketch:type="MSShapeGroup" xlink:href="#path-1"></use>
            <path d="M60.1023737,87.4779223 C56.0056691,85.5528896 51.597052,84.6560873 47.268315,84.6560873 C43.7345744,84.6560873 40.2540873,85.2513785 37.0588859,86.3994401 C36.3171428,86.6584305 35.8530778,87.3155701 35.8530778,88.0654824 C35.8530778,88.1969103 35.8606854,88.3669935 35.9253502,88.5370768 C36.1155408,89.3063167 36.8382649,89.8552216 37.6598881,89.843625 C37.7511795,89.843625 37.8310596,89.8320284 37.8881167,89.8320284 C38.044073,89.8165663 39.2612926,89.6155589 41.6843203,89.6116934 C49.5506017,89.696735 66.6487327,91.9348753 73.5982956,113.539308 C73.8379357,114.296951 74.5416408,114.787873 75.3252259,114.787873 C75.4545554,114.787873 75.5534545,114.76468 75.6029041,114.76468 C76.3864892,114.625521 76.9380418,114.049557 77.074979,113.3383 L77.1244285,112.924689 C76.6793826,102.329278 70.4525438,92.321428 60.1023737,87.4779223 L60.1023737,87.4779223 Z M71.0801726,64.4857656 C63.3850627,60.8869597 55.2411031,59.159069 47.2340807,59.159069 C41.7794155,59.159069 36.3703961,59.9592331 31.2200358,61.5170406 C30.451666,61.7412412 29.9419553,62.4370361 29.9419553,63.2101416 C29.9419553,63.3338385 29.9533667,63.4923251 30.0066201,63.6546773 C30.2044183,64.4471104 30.9385538,64.9998808 31.7487656,64.9882842 C31.8742914,64.9882842 31.94276,64.9844187 31.9884057,64.9844187 C32.1900077,64.965091 35.2863099,64.3775309 40.6572912,64.3775309 C56.6409056,64.4973622 89.1558831,69.5496064 99.247394,113.102503 C99.4375846,113.918129 100.175524,114.482496 101.008559,114.482496 L101.096046,114.482496 C101.130281,114.482496 101.175926,114.482496 101.210161,114.474765 C102.115468,114.358799 102.762116,113.624349 102.788742,112.777799 C102.803957,112.731412 102.803957,112.708219 102.803957,112.708219 L102.803957,112.650236 C102.260012,92.6268047 90.6165466,73.6393344 71.0801726,64.4857656 L71.0801726,64.4857656 Z M127,111.641334 C126.075674,83.0132382 109.380747,55.8965639 81.4379503,42.8117538 C70.4525438,37.6590059 58.8509199,35.2121271 47.4356827,35.2121271 C39.5389708,35.2121271 31.7221389,36.3872474 24.2666691,38.6253877 C23.5021031,38.8573194 23,39.5647109 23,40.3416819 C23,40.4537821 23.0038038,40.6045377 23.0418419,40.7668899 C23.2396401,41.567054 23.9775795,42.1043623 24.7877912,42.1043623 C24.8981018,42.1043623 24.993197,42.0966313 25.054058,42.0927657 C25.2366409,42.0773036 29.9229362,41.2500808 37.7701986,41.2384842 C61.3348085,41.3699121 109.677444,48.8419765 123.451044,112.066542 C123.62602,112.889899 124.363959,113.469728 125.200797,113.469728 C125.326323,113.469728 125.387184,113.454266 125.387184,113.454266 C126.273472,113.3383 126.927728,112.669564 127,111.826879 L127,111.641334 Z" id="Fill-33" fill="#FFFFFF" sketch:type="MSShapeGroup" mask="url(#mask-2)"></path>
        </g>
    </g>
</svg>